<?xml version="1.0" encoding="UTF-8"?>
<svg width="140px" height="33px" viewBox="0 0 140 33" version="1.1" xmlns="http://www.w3.org/2000/svg" xmlns:xlink="http://www.w3.org/1999/xlink">
    <title>sws-nav-logo-light</title>
    <defs>
        <polygon id="path-1" points="0 0.0903370505 14.2072815 0.0903370505 14.2072815 12.9256785 0 12.9256785"></polygon>
        <polygon id="path-3" points="0.140625882 0.0638117172 7.05053176 0.0638117172 7.05053176 5.89740016 0.140625882 5.89740016"></polygon>
        <polygon id="path-5" points="0.0304376471 0.0638117172 6.94017882 0.0638117172 6.94017882 5.89740016 0.0304376471 5.89740016"></polygon>
    </defs>
    <g id="Tease" stroke="none" stroke-width="1" fill="none" fill-rule="evenodd">
        <g id="sws-nav-logo-light">
            <path d="M138.838016,17.0918126 C138.587005,15.6489132 137.076816,15.0823177 135.502887,14.7001035 C133.706605,14.2476801 132.164464,14.0637908 132.038628,13.3700639 C132.029075,13.2995265 132.023475,13.2145536 132.046369,13.1295807 C132.069264,13.0446078 132.120652,12.9596348 132.167922,12.8890975 C132.469664,12.5070474 133.147264,12.3653164 133.800981,12.3653164 C133.918252,12.3515371 134.028111,12.3653164 134.10964,12.379752 C134.223122,12.379752 134.332981,12.3936954 134.425052,12.4219104 C134.44284,12.408131 134.453381,12.4219104 134.467711,12.4219104 C134.563405,12.4358538 134.654981,12.4647249 134.732722,12.4924478 C134.951452,12.5774207 135.120111,12.6907726 135.238205,12.8325035 C135.283664,12.8746619 135.325169,12.9312558 135.348722,13.0024494 C135.376064,13.0590433 135.399946,13.1295807 135.409499,13.199954 C135.432722,13.2711476 135.427946,13.3416849 135.433546,13.4266579 C135.429758,13.4412575 135.439969,13.4550368 135.436181,13.4694724 C135.43124,13.5400098 135.404722,13.6387621 135.482464,13.6671411 C135.588534,13.6955201 135.787499,13.6955201 135.817146,13.6955201 L135.901805,13.6955201 L136.034722,13.6955201 L136.20964,13.6955201 L136.419475,13.6955201 L136.658134,13.6955201 L136.918534,13.6955201 L137.194416,13.6955201 L137.479028,13.6955201 L137.765616,13.6955201 L138.047922,13.6955201 L138.319358,13.6955201 L138.573005,13.6955201 L138.802275,13.6955201 L139.000746,13.6955201 L139.161993,13.6955201 L139.278934,13.6955201 C139.348275,13.6955201 139.417122,13.695028 139.489428,13.6773116 C139.548064,13.662712 139.607028,13.63827 139.659899,13.6020171 C139.72644,13.5565779 139.781122,13.4932583 139.817358,13.4253455 C139.859028,13.3480825 139.874016,13.2645859 139.886699,13.1860106 C139.889334,13.1694425 139.891805,13.1530385 139.894111,13.1364704 C139.896581,13.1202304 139.898722,13.1038263 139.901193,13.0874223 C139.907122,12.9596348 139.927052,12.8325035 139.914864,12.7191516 C139.920793,12.5920203 139.898228,12.4647249 139.871875,12.3515371 C139.554981,10.6246837 137.557264,9.70490917 134.573452,9.70490917 C131.632134,9.70490917 129.161381,10.5963047 127.962981,12.2519645 C127.689734,12.6341787 127.497687,13.0308284 127.36444,13.5262304 C127.227405,14.0354118 127.187052,14.5025989 127.261334,14.9123718 C127.490275,16.0165278 128.231781,16.6390611 130.120299,17.1200276 C131.853005,17.5450562 133.87444,17.7427249 134.016581,18.5352041 C134.046393,18.6346126 134.03404,18.733529 134.007358,18.8329375 C133.98084,18.9318538 133.943616,19.0168267 133.852699,19.1441221 C133.583405,19.5115726 132.903828,19.7666554 131.951664,19.7666554 C131.909169,19.7666554 131.866675,19.7666554 131.82764,19.752876 C131.699664,19.752876 131.586016,19.752876 131.476322,19.7382764 C131.380464,19.7244971 131.284934,19.7098975 131.20324,19.6961181 C131.107875,19.6815185 131.015969,19.6533035 130.938228,19.6249245 C130.715875,19.5545512 130.547216,19.4410352 130.432911,19.285689 C130.39124,19.228931 130.349569,19.1723371 130.322393,19.1157431 C130.294887,19.0589851 130.271334,18.9886118 130.262111,18.9174183 C130.256181,18.8329375 130.243005,18.7765076 130.237405,18.6913706 C130.227193,18.676935 130.230816,18.6629916 130.234934,18.648556 C130.231969,18.6063977 130.251075,18.5352041 130.223405,18.4792663 C130.227358,18.4646667 130.213193,18.4646667 130.188487,18.4502312 C130.125075,18.4225084 130.011428,18.4225084 129.926275,18.4225084 L126.189264,18.4225084 C126.189264,18.4225084 126.032958,18.4225084 125.913216,18.5498037 C125.855569,18.6063977 125.811922,18.6629916 125.796605,18.7197496 C125.755758,18.8185019 125.743405,18.9174183 125.727099,19.0306061 C125.710958,19.1441221 125.712769,19.2427104 125.714252,19.3422829 C125.703711,19.5406078 125.725287,19.7244971 125.747028,19.9082223 C126.083687,21.7193924 128.051099,22.5402506 131.162887,22.5402506 C134.260511,22.5402506 136.797146,21.7193924 138.043311,19.9931952 C138.367946,19.5261722 138.607264,19.0589851 138.759287,18.4930457 C138.903899,17.9554853 138.92004,17.4738627 138.838016,17.0918126" id="Fill-1" fill="#FFFFFF"></path>
            <path d="M25.7147553,16.5825492 C25.0004259,18.4265274 23.2787553,19.212609 21.5160729,19.1440401 C19.5629906,19.0679253 18.5785435,17.9232514 19.2256729,15.9062106 C19.8308024,14.0202381 21.4431082,13.102432 23.2980259,13.1012824 C25.4512259,13.0998074 26.5308729,14.3734171 25.7147553,16.5825492 M30.6295788,13.313388 C30.1967318,10.9080635 27.7355318,9.70499119 24.2401435,9.70499119 C20.7020965,9.70499119 17.5680729,10.9502219 15.7857906,13.4551189 C15.2353435,14.2338187 14.8105671,15.1252142 14.5440729,16.1153621 C14.2546847,17.1913031 14.2024729,18.1253492 14.3625671,18.9033928 C14.8225906,21.3654752 17.2348729,22.5401686 20.7727553,22.5401686 C21.0712024,22.5401686 21.35532,22.5401686 21.6330141,22.5119536 L22.1552965,24.0047213 L25.9993671,24.0047213 C26.2314376,24.0047213 26.4378141,23.7450453 26.3567788,23.5550865 L25.5518612,21.677316 C26.9584494,21.0967771 28.1502612,20.2053815 29.0447788,19.0452878 C29.6816965,18.20983 30.1575318,17.2334615 30.4582847,16.1153621 C30.7438847,15.0540207 30.7819318,14.1204667 30.6295788,13.313388" id="Fill-3" fill="#FFFFFF"></path>
            <path d="M43.1093271,10.1292325 L41.4607859,16.2569618 C40.9276329,18.2382418 39.8315153,19.1440729 37.9131859,19.1440729 C35.9808565,19.1440729 35.3577741,18.2382418 35.8907624,16.2569618 L37.5393035,10.1292325 L33.2765506,10.1292325 L31.5593271,16.5120446 C30.5086682,20.4175185 32.1969035,22.5402014 37.0278918,22.5402014 C41.8022212,22.5402014 44.5925035,20.4603331 45.6548565,16.5120446 L47.3719153,10.1292325 L43.1093271,10.1292325 Z" id="Fill-5" fill="#FFFFFF"></path>
            <path d="M51.9323412,17.2617913 L54.9833529,12.9457242 L55.0260118,12.9457242 L55.7546706,17.2617913 L51.9323412,17.2617913 Z M58.7108118,10.1293145 L52.8140118,10.1293145 L43.9338941,22.1160749 L48.5092588,22.1160749 L49.931,20.10658 L56.2254,20.10658 L56.5800118,22.1160749 L61.1410471,22.1160749 L58.7108118,10.1293145 Z" id="Fill-7" fill="#FFFFFF"></path>
            <path d="M72.9757741,17.4738791 C72.33128,18.3377159 71.3493035,18.8185183 69.8573976,18.8185183 L67.0725506,18.8185183 L68.5191624,13.4412739 L71.3041741,13.4412739 C72.7675859,13.4412739 73.5173271,13.823324 73.7039388,14.7147195 C73.7752565,15.0823341 73.7414918,15.5777361 73.59688,16.1152965 C73.45968,16.6252981 73.24128,17.120044 72.9757741,17.4738791 M78.3858682,13.5262468 C78.0052329,11.1906395 75.9179153,10.1292981 72.4793506,10.1292981 L65.1474682,10.1292981 L61.9226918,22.1160585 L69.2545741,22.1160585 C72.6929741,22.1160585 75.2986212,21.0401175 76.9807624,18.748145 C77.5237976,17.9974961 77.9302918,17.120044 78.2007388,16.1152965 C78.4670682,15.1251486 78.51088,14.2759114 78.3858682,13.5262468" id="Fill-9" fill="#FFFFFF"></path>
            <path d="M87.8785929,15.0539715 C87.47424,15.6061315 86.79944,15.7898567 85.9610871,15.7898567 L84.0287576,15.7898567 L84.7786635,13.0024822 L86.7109929,13.0024822 C87.5493459,13.0024822 88.09864,13.2849598 88.20224,13.8510632 C88.2350165,13.9926301 88.2178871,14.1625759 88.1529929,14.4030592 C88.0882635,14.6435424 87.9914165,14.8984612 87.8785929,15.0539715 L87.8785929,15.0539715 Z M88.2516518,17.9975125 C89.7694165,17.7427577 90.90424,17.0641226 91.6366871,16.03034 C91.9898165,15.5639731 92.2824988,14.8984612 92.4653224,14.2193339 C92.6479812,13.5400426 92.6940988,12.9457242 92.5960988,12.4647577 C92.3205459,11.0067666 90.9368518,10.1293145 88.6634165,10.1293145 L81.3032047,10.1293145 L78.0782635,22.1160749 L82.3268518,22.1160749 L83.38904,18.1676224 L86.1205224,22.1160749 L91.3069459,22.1160749 L88.2516518,17.9975125 Z" id="Fill-11" fill="#FFFFFF"></path>
            <path d="M103.740873,17.5166608 C102.982732,18.5919457 101.754355,19.1441057 100.205626,19.1441057 C98.71372,19.1441057 97.7462376,18.6203247 97.5382141,17.5450398 C97.4667318,17.1767691 97.4925906,16.7104023 97.6564729,16.1016483 C97.8239788,15.4789509 98.0349671,15.0117639 98.3225435,14.6297138 C99.1052259,13.5683724 100.310873,13.1011853 101.788614,13.1011853 C103.26652,13.1011853 104.246191,13.526214 104.464755,14.6152782 C104.546779,14.9973283 104.530802,15.4789509 104.359508,16.1154277 C104.199414,16.7104023 104.00012,17.1346107 103.740873,17.5166608 M109.134496,13.3132895 C108.687485,10.9079651 106.226285,9.70489277 102.745061,9.70489277 C99.1928494,9.70489277 96.0586612,10.9501235 94.2763788,13.4550204 C93.7259318,14.2337202 93.3011553,15.1251158 93.0348259,16.1154277 C92.7452729,17.1913687 92.7073906,18.1254148 92.8531553,18.9034584 C93.3131788,21.3655408 95.7254612,22.5402342 99.2633435,22.5402342 C102.716073,22.5402342 105.734638,21.4085194 107.535532,19.0451893 C108.172285,18.2098956 108.648285,17.2333631 108.949038,16.1154277 C109.234473,15.0539223 109.27252,14.1203683 109.134496,13.3132895" id="Fill-13" fill="#FFFFFF"></path>
            <polygon id="Fill-15" fill="#FFFFFF" points="122.310489 10.1292325 120.391666 17.2617093 116.711972 10.1292325 112.051454 10.1292325 108.826513 22.1159929 113.018278 22.1159929 114.872536 15.2239994 118.488654 22.1159929 123.277313 22.1159929 126.502089 10.1292325"></polygon>
            <g id="Group-19" transform="translate(0.000000, 9.614572)">
                <mask id="mask-2" fill="white">
                    <use xlink:href="#path-1"></use>
                </mask>
                <g id="Clip-18"></g>
                <path d="M13.1265812,7.47724048 C12.8754047,6.03434109 11.3653812,5.46774554 9.79128706,5.08553139 C7.99516941,4.63310796 6.45302824,4.44921867 6.32702824,3.7554918 C6.31764,3.68495442 6.31204,3.59998149 6.33493412,3.51500857 C6.35766353,3.43003564 6.40905176,3.34506271 6.45648706,3.27452533 C6.75822824,2.89247523 7.43582824,2.75074432 8.08938118,2.75074432 C8.20665176,2.73696493 8.31667529,2.75074432 8.39804,2.76517988 C8.51168706,2.76517988 8.62154588,2.77912331 8.71345176,2.80733826 C8.73140471,2.79355887 8.74194588,2.80733826 8.75611059,2.80733826 C8.85180471,2.8212817 8.94338118,2.85015281 9.02128706,2.87787564 C9.24001647,2.96284857 9.40851059,3.07620048 9.52676941,3.21793139 C9.57206353,3.26008978 9.61373412,3.31668372 9.63712235,3.38787725 C9.66462824,3.44447119 9.68834588,3.51500857 9.69789882,3.5853819 C9.72112235,3.65657543 9.71651059,3.72711281 9.72211059,3.81208574 C9.71815765,3.82668533 9.72853412,3.84046473 9.72458118,3.85490028 C9.71980471,3.92543766 9.69328706,4.02418998 9.77086353,4.05256897 C9.87709882,4.08094796 10.0758988,4.08094796 10.1055459,4.08094796 L10.1902047,4.08094796 L10.3232871,4.08094796 L10.4982047,4.08094796 L10.70804,4.08094796 L10.9465341,4.08094796 L11.2070988,4.08094796 L11.4829812,4.08094796 L11.7674282,4.08094796 L12.0541812,4.08094796 L12.3364871,4.08094796 L12.6077576,4.08094796 L12.8614047,4.08094796 L13.0906753,4.08094796 L13.2893106,4.08094796 L13.4503929,4.08094796 L13.5674988,4.08094796 C13.6366753,4.08094796 13.7055224,4.08045584 13.7779929,4.06273947 C13.8364635,4.04813988 13.8954282,4.02369786 13.9484635,3.98744493 C14.0150047,3.94200574 14.0695224,3.87868614 14.1059224,3.81077341 C14.1474282,3.73351038 14.1625812,3.65001382 14.1750988,3.57143846 C14.1777341,3.55487038 14.1803694,3.53846634 14.1826753,3.52189826 C14.1849812,3.50565826 14.1872871,3.48925422 14.1895929,3.47285018 C14.1955224,3.34506271 14.2156165,3.21793139 14.2034282,3.10457947 C14.2093576,2.97744816 14.1866282,2.85015281 14.16044,2.73696493 C13.8433812,1.0101116 11.8456635,0.0903370505 8.86201647,0.0903370505 C5.92069882,0.0903370505 3.44994588,0.981732606 2.25138118,2.6373924 C1.97813412,3.01960655 1.78608706,3.41625624 1.65284,3.91165826 C1.51580471,4.42083968 1.47561647,4.88802675 1.54989882,5.29779968 C1.77867529,6.40195564 2.52034588,7.02448897 4.40869882,7.50545543 C6.14156941,7.93048412 8.16300471,8.12815281 8.30498118,8.920632 C8.33495765,9.02004048 8.32260471,9.11895685 8.29575765,9.21836533 C8.26924,9.3172817 8.23218118,9.40225463 8.14109882,9.52954998 C7.87180471,9.89700048 7.19239294,10.1520833 6.24022824,10.1520833 C6.19756941,10.1520833 6.15507529,10.1520833 6.11620471,10.1383039 C5.98806353,10.1383039 5.87458118,10.1383039 5.76488706,10.1237043 C5.66902824,10.1099249 5.57333412,10.0953253 5.49180471,10.0815459 C5.39627529,10.0669463 5.30436941,10.0387314 5.22679294,10.0103524 C5.00427529,9.93997907 4.83578118,9.82646311 4.72131059,9.67111685 C4.67964,9.61435887 4.63796941,9.55776493 4.61079294,9.50117099 C4.58328706,9.44441301 4.55989882,9.37403968 4.55051059,9.30284614 C4.54474588,9.21836533 4.53156941,9.16193543 4.52596941,9.07679846 C4.51559294,9.06236291 4.51938118,9.04841947 4.52333412,9.03398392 C4.52036941,8.99182554 4.53947529,8.920632 4.51196941,8.86469422 C4.51592235,8.85009463 4.50159294,8.85009463 4.47705176,8.83565907 C4.41364,8.80793624 4.29999294,8.80793624 4.21467529,8.80793624 L0.477828235,8.80793624 C0.477828235,8.80793624 0.321357647,8.80793624 0.201781176,8.9352316 C0.144134118,8.99182554 0.100487059,9.04841947 0.0851694118,9.10517745 C0.0443223529,9.20392978 0.0319694118,9.30284614 0.0156635294,9.41603402 C-0.000477647059,9.52954998 0.00116941176,9.62813826 0.00281647059,9.72771079 C-0.00788941176,9.92603564 0.0138517647,10.1099249 0.0354282353,10.2936502 C0.372251765,12.1048203 2.33949882,12.9256785 5.45128706,12.9256785 C8.54907529,12.9256785 11.0857106,12.1048203 12.3317106,10.3786231 C12.6563459,9.91160008 12.8956635,9.44441301 13.0478518,8.87847362 C13.1924635,8.34091321 13.20844,7.85929059 13.1265812,7.47724048" id="Fill-17" fill="#FFFFFF" mask="url(#mask-2)"></path>
            </g>
            <polygon id="Fill-20" fill="#FFFFFF" points="73.9604682 27.1418628 73.9604682 26.761125 74.1006329 26.761125 74.1006329 26.7027266 73.7475035 26.7027266 73.7475035 26.761125 73.8863506 26.761125 73.8863506 27.1418628"></polygon>
            <polygon id="Fill-22" fill="#FFFFFF" points="74.6818635 27.1418628 74.6818635 26.7027266 74.56904 26.7027266 74.4382635 27.0363848 74.3045224 26.7027266 74.1908753 26.7027266 74.1908753 27.1418628 74.2646635 27.1418628 74.2646635 26.7750684 74.2669694 26.7750684 74.4135576 27.1418628 74.4595106 27.1418628 74.6060988 26.7750684 74.60824 26.7750684 74.60824 27.1418628"></polygon>
            <polygon id="Fill-24" fill="#FFFFFF" points="63.5923647 26.7027594 62.2987647 28.7670439 1.9306 28.7670439 3.2242 26.7027594"></polygon>
            <polygon id="Fill-26" fill="#FFFFFF" points="137.985532 26.7027594 136.691932 28.7670439 77.6173671 28.7670439 76.3239318 26.7027594"></polygon>
            <polygon id="Fill-28" fill="#FFFFFF" points="72.6955765 26.7027594 69.8300235 31.2732532 66.5800471 31.2732532 67.2973412 30.1305477 69.4918824 30.1305477 70.2075294 28.9894827 65.6059765 28.9894827 64.8895059 30.1305477 65.9421412 30.1305477 64.5108471 32.4161227 70.4616706 32.4161227 72.6955765 28.8584144 73.4948941 30.1305477 72.8324471 30.1305477 72.1158118 31.2732532 74.2103765 31.2732532 74.9260235 32.4161227 76.2792471 32.4161227"></polygon>
            <polygon id="Fill-30" fill="#FFFFFF" points="71.7600965 26.7027594 67.0437435 26.7027594 66.3231553 27.8462851 71.0429671 27.8462851"></polygon>
            <path d="M137.985532,3.93318036 L136.691932,5.99762885 L94.55292,5.99762885 C94.6179788,5.94398764 94.6846847,5.88755774 94.7482612,5.8240741 C94.9042376,5.67299289 95.4100494,5.1086939 95.4100494,4.19695733 C95.4100494,4.10394642 95.4042847,4.01634885 95.3958847,3.93318036 L137.985532,3.93318036 Z" id="Fill-32" fill="#FFFFFF"></path>
            <path d="M62.5651271,2.55309204 L61.2375976,2.55309204 L61.2361153,1.81507426 L62.4560918,1.81507426 C62.5949388,1.81507426 62.8739506,1.88282295 62.8739506,2.19614012 C62.8739506,2.50929325 62.5651271,2.55309204 62.5651271,2.55309204 L62.5651271,2.55309204 Z M64.2695035,3.93316396 C63.9168682,3.93037527 63.8926565,3.79208921 63.8926565,3.77371669 C63.8926565,3.738448 63.9366329,3.71581042 63.9366329,3.71581042 C64.06988,3.65380315 64.3390094,3.44497972 64.3390094,3.44497972 C64.9128447,3.0060076 64.9808682,2.40348719 64.9808682,2.0803276 C64.9808682,1.757168 64.9312918,1.18433891 64.3432918,0.683359515 C63.7566094,0.181067798 63.0099976,0.164171636 63.0099976,0.164171636 L58.8686329,0.164171636 L58.8701153,5.99761244 L61.2120682,5.99761244 L61.2120682,4.32833729 L62.4560918,5.55880436 C62.8839976,5.98350497 63.5881153,5.99761244 63.5881153,5.99761244 L67.1329153,5.99761244 L67.1329153,3.93316396 L64.2695035,3.93316396 Z" id="Fill-34" fill="#FFFFFF"></path>
            <path d="M87.5068847,2.55309204 L86.1780376,2.55309204 L86.1780376,1.81507426 L87.3978494,1.81507426 C87.5352141,1.81507426 87.8143906,1.88282295 87.8143906,2.19614012 C87.8143906,2.50929325 87.5068847,2.55309204 87.5068847,2.55309204 M93.7082259,2.0563777 L96.6370259,2.0563777 L96.6370259,0.164171636 L92.8710259,0.164171636 C92.5167435,0.164171636 92.0237788,0.343303758 91.7390024,0.550650828 C91.4542259,0.758161939 91.0434494,1.23092638 91.0434494,1.88282295 C91.0434494,2.53340719 91.4456612,3.03996396 91.4456612,3.03996396 C91.6510494,3.28963345 92.1697082,3.81456275 92.1697082,3.81456275 C92.1810729,3.8273579 92.1881553,3.8427777 92.1881553,3.86115022 C92.1881553,3.90068396 92.1568612,3.93316396 92.1171671,3.93316396 L89.2142259,3.93316396 C88.8614259,3.93037527 88.8358965,3.79208921 88.8358965,3.77371669 C88.8358965,3.738448 88.8811906,3.7144981 88.8811906,3.7144981 C89.01312,3.65380315 89.2820847,3.44497972 89.2820847,3.44497972 C89.8560847,3.0060076 89.9254259,2.40217487 89.9254259,2.0803276 C89.9254259,1.757168 89.8758494,1.18286255 89.2878494,0.682047192 C88.6998494,0.181067798 87.9532376,0.166960323 87.9532376,0.166960323 L83.8117082,0.166960323 L83.8117082,5.99761244 L86.1538259,5.99761244 L86.1538259,4.32833729 L87.3993318,5.557328 C87.8257553,5.98202861 88.5328376,5.99761244 88.5328376,5.99761244 L93.0721318,5.99613608 C93.8457553,5.99613608 94.2766259,5.5812779 94.3940612,5.46562941 C94.5131435,5.34981689 94.9041553,4.91675022 94.9041553,4.19694093 C94.9041553,3.47877204 94.5712847,3.11050133 94.4294729,2.94252396 C94.3019906,2.79013042 93.7963435,2.26388881 93.6914259,2.1538177 C93.6785788,2.1452876 93.6701788,2.12970376 93.6701788,2.1128076 C93.6701788,2.08606901 93.6843435,2.06343143 93.7082259,2.0563777" id="Fill-36" fill="#FFFFFF"></path>
            <path d="M71.8233106,5.99746481 C71.8233106,5.99664461 72.5290753,3.75585269 72.5290753,3.75585269 L73.2158988,5.99746481 L75.2208635,5.99746481 C75.2208635,5.99746481 77.0237341,0.171241778 77.0237341,0.165500364 L74.7763224,0.165500364 C74.7763224,0.166320566 74.2938988,1.75127895 74.2938988,1.75193511 L73.7910518,0.165500364 L71.3375929,0.164680162 L70.8889341,1.75193511 L70.4073341,0.164680162 L68.0041106,0.164680162 L69.8364635,5.99746481 L71.8233106,5.99746481 Z" id="Fill-38" fill="#FFFFFF"></path>
            <g id="Group-42" transform="translate(76.094118, 0.100229)">
                <mask id="mask-4" fill="white">
                    <use xlink:href="#path-3"></use>
                </mask>
                <g id="Clip-41"></g>
                <path d="M3.12295529,3.46746966 L3.63024941,1.84888299 L4.13589647,3.46746966 L3.12295529,3.46746966 Z M5.21554353,0.0637953131 L1.93147294,0.0652716768 C1.93147294,0.0652716768 0.140625882,5.8873937 0.140625882,5.89740016 L2.33384941,5.89740016 L2.60149647,5.05357632 L4.61617882,5.05209996 L4.88992,5.89740016 L7.05053176,5.89740016 L5.21554353,0.0637953131 Z" id="Fill-40" fill="#FFFFFF" mask="url(#mask-4)"></path>
            </g>
            <g id="Group-45" transform="translate(51.552941, 0.100229)">
                <mask id="mask-6" fill="white">
                    <use xlink:href="#path-5"></use>
                </mask>
                <g id="Clip-44"></g>
                <path d="M3.01276706,3.46746966 L3.52006118,1.84757067 L4.02587294,3.46746966 L3.01276706,3.46746966 Z M5.10403765,0.0637953131 L1.82260235,0.0637953131 C1.82260235,0.0637953131 0.0304376471,5.88608137 0.0304376471,5.89740016 L2.22366118,5.8959238 L2.49130824,5.05357632 L4.50895529,5.05357632 L4.77956706,5.89740016 L6.94017882,5.89740016 L5.10403765,0.0637953131 Z" id="Fill-43" fill="#FFFFFF" mask="url(#mask-6)"></path>
            </g>
            <path d="M52.4263765,0.16410602 L52.4263765,2.06631855 L49.8675059,2.06631855 L49.8675059,5.99771087 L47.7594353,5.99771087 L47.7594353,2.05647612 L45.0192235,2.05647612 C44.9964941,2.06352986 44.9823294,2.08747976 44.9823294,2.11290602 C44.9823294,2.12980218 44.9894118,2.14538602 45.0020941,2.15522844 C45.1083294,2.26382319 45.6143059,2.78744016 45.7417882,2.93835733 C45.8834353,3.10764703 46.2163059,3.48018279 46.2163059,4.19851572 C46.2163059,4.91668461 45.8239765,5.35139168 45.7063765,5.46704016 C45.5887765,5.58268865 45.1580706,5.99771087 44.3831294,5.99771087 L1.93068235,5.99771087 L3.22428235,3.93326238 C10.2432235,3.93326238 43.4224,3.93605107 43.4281647,3.93605107 C43.4676941,3.93605107 43.5003059,3.90357107 43.5003059,3.86534966 C43.5003059,3.84714117 43.4917412,3.83024501 43.4805412,3.81892622 C43.4805412,3.81892622 42.9633647,3.2910442 42.7564941,3.03989834 C42.7564941,3.03989834 42.3541176,2.53334158 42.3541176,1.88292137 C42.3541176,1.23086077 42.7663765,0.758260364 43.0498353,0.550749253 C43.3346118,0.343402182 43.8305412,0.16410602 44.1818588,0.16410602 L52.4263765,0.16410602 Z" id="Fill-46" fill="#FFFFFF"></path>
            <polygon id="Fill-48" fill="#FFFFFF" points="97.4328353 0.603832727 97.4328353 0.223094949 97.573 0.223094949 97.573 0.164860606 97.2200353 0.164860606 97.2200353 0.223094949 97.3588824 0.223094949 97.3588824 0.603832727"></polygon>
            <polygon id="Fill-50" fill="#FFFFFF" points="98.1542141 0.603832727 98.1542141 0.164860606 98.0413906 0.164860606 97.9107788 0.498354747 97.7768729 0.164860606 97.6633906 0.164860606 97.6633906 0.603832727 97.7370141 0.603832727 97.7370141 0.237038384 97.73932 0.237038384 97.8859082 0.603832727 97.9318612 0.603832727 98.0784494 0.237038384 98.0805906 0.237038384 98.0805906 0.603832727"></polygon>
            <polygon id="Fill-52" fill="#FFFFFF" points="63.5923647 26.7027594 62.2987647 28.7670439 60.403 28.7670439 60.403 26.7027594"></polygon>
        </g>
    </g>
</svg>